<svg xmlns="http://www.w3.org/2000/svg" width="1300" height="980" viewBox="0 0 1300 980">
  <rect width="1300" height="980" fill="#080b12"/>
  <rect x="70" y="82" width="1160" height="816" rx="30" fill="#111827" stroke="#334155" stroke-width="3"/>
  <rect x="70" y="82" width="1160" height="94" rx="30" fill="#172033"/>
  <rect x="70" y="142" width="1160" height="34" fill="#172033"/>

  <circle cx="116" cy="130" r="13" fill="#ef4444"/>
  <circle cx="158" cy="130" r="13" fill="#f59e0b"/>
  <circle cx="200" cy="130" r="13" fill="#22c55e"/>

  <text x="120" y="306" font-family="Segoe UI, Arial, sans-serif" font-size="70" font-weight="800" fill="#f8fafc">
    Playwright QA Automation
  </text>
  <text x="120" y="362" font-family="Segoe UI, Arial, sans-serif" font-size="30" fill="#cbd5e1">
    End-to-end web testing with reports, videos,
  </text>
  <text x="120" y="404" font-family="Segoe UI, Arial, sans-serif" font-size="30" fill="#cbd5e1">CI, and maintainable Page Objects</text>

  <g transform="translate(120 500)">
    <rect width="500" height="128" rx="16" fill="#0f1f3d" stroke="#3b82f6" stroke-width="2"/>
    <text x="32" y="58" font-family="Segoe UI, Arial, sans-serif" font-size="46" font-weight="800" fill="#60a5fa">8</text>
    <text x="32" y="98" font-family="Segoe UI, Arial, sans-serif" font-size="25" fill="#e2e8f0">UI scenarios</text>
  </g>

  <g transform="translate(680 500)">
    <rect width="500" height="128" rx="16" fill="#0f2d22" stroke="#22c55e" stroke-width="2"/>
    <text x="32" y="58" font-family="Segoe UI, Arial, sans-serif" font-size="46" font-weight="800" fill="#4ade80">24</text>
    <text x="32" y="98" font-family="Segoe UI, Arial, sans-serif" font-size="25" fill="#e2e8f0">browser runs</text>
  </g>

  <g transform="translate(120 672)">
    <rect width="500" height="128" rx="16" fill="#33210f" stroke="#f97316" stroke-width="2"/>
    <text x="32" y="58" font-family="Segoe UI, Arial, sans-serif" font-size="46" font-weight="800" fill="#fb923c">3</text>
    <text x="32" y="98" font-family="Segoe UI, Arial, sans-serif" font-size="25" fill="#e2e8f0">browsers</text>
  </g>

  <g transform="translate(680 672)">
    <rect width="500" height="128" rx="16" fill="#331528" stroke="#ec4899" stroke-width="2"/>
    <text x="32" y="58" font-family="Segoe UI, Arial, sans-serif" font-size="46" font-weight="800" fill="#f472b6">MP4</text>
    <text x="32" y="98" font-family="Segoe UI, Arial, sans-serif" font-size="25" fill="#e2e8f0">demo video</text>
  </g>

  <text x="120" y="852" font-family="Segoe UI, Arial, sans-serif" font-size="24" fill="#94a3b8">
    TypeScript | Playwright | HTML report | Screenshots | Videos | GitHub Actions
  </text>
</svg>
